<?xml version="1.0" encoding="utf-8"?>
<!-- Generator: Adobe Illustrator 25.0.0, SVG Export Plug-In . SVG Version: 6.00 Build 0)  -->
<svg version="1.1" id="Layer_1" xmlns="http://www.w3.org/2000/svg" xmlns:xlink="http://www.w3.org/1999/xlink" x="0px" y="0px"
	 viewBox="0 0 5523.7 1561.7" style="enable-background:new 0 0 5523.7 1561.7;" xml:space="preserve">
<style type="text/css">
	.st0{fill:#FFFFFF;stroke:#59221D;stroke-width:5;stroke-miterlimit:10;}
	.st1{fill:#98C8DB;}
	.st2{fill:none;stroke:#59221D;stroke-width:5;stroke-miterlimit:10;}
	.st3{fill:none;stroke:#59221D;stroke-width:5;stroke-linecap:round;stroke-miterlimit:9.9999;}
	.st4{fill:#59221D;}
	.st5{fill:none;stroke:#59221D;stroke-width:5;stroke-linecap:round;stroke-miterlimit:10;}
	.st6{fill:#F5BBBB;}
	.st7{fill:#FFC200;}
	.st8{fill:#BDDCE8;}
	.st9{fill:#FED4C7;}
	.st10{fill:none;stroke:#FFFFFF;stroke-width:6;stroke-linecap:round;stroke-miterlimit:10;}
	.st11{fill:#FFFFFF;stroke:#59221D;stroke-width:5;stroke-linecap:round;stroke-miterlimit:10;}
	.st12{fill:#A74602;stroke:#59221D;stroke-width:5;stroke-miterlimit:10;}
	.st13{opacity:0.5;}
	.st14{fill:#FFFFFF;}
	.st15{fill:#632D23;}
	.st16{fill:#1A0C12;}
	.st17{fill:none;stroke:#1A0C12;stroke-width:5;stroke-linecap:round;stroke-miterlimit:10;}
	.st18{fill:#A74602;}
	.st19{fill:none;stroke:#59221D;stroke-width:4;stroke-linecap:round;stroke-miterlimit:10;}
	.st20{fill:#FFC200;stroke:#59221D;stroke-width:5;stroke-miterlimit:10;}
	.st21{fill:none;stroke:#59221D;stroke-width:6;stroke-miterlimit:10;}
	.st22{fill:#F5BBBB;stroke:#592D29;stroke-width:6;stroke-linejoin:round;}
	.st23{fill:none;stroke:#FFC200;stroke-width:4;stroke-linecap:round;stroke-miterlimit:10;}
	.st24{fill:none;stroke:#FFFFFF;stroke-width:4;stroke-linecap:round;stroke-miterlimit:10;}
	.st25{fill:#8CBED1;}
	.st26{fill:none;stroke:#FFFFFF;stroke-width:5;stroke-linecap:round;stroke-linejoin:round;}
	.st27{fill:#F3B304;}
	.st28{fill:none;stroke:#59221D;stroke-width:4;stroke-linecap:round;stroke-linejoin:round;}
	.st29{fill:#FFFFFF;stroke:#59221D;stroke-width:5;stroke-linejoin:round;}
	.st30{fill:none;stroke:#59221D;stroke-width:5;stroke-linecap:round;stroke-linejoin:round;}
	.st31{fill:none;stroke:#A74602;stroke-width:3;stroke-linecap:round;stroke-miterlimit:10;}
	.st32{fill:none;stroke:#FFFFFF;stroke-width:5;stroke-miterlimit:10;}
	.st33{fill:none;stroke:#59221D;stroke-width:4.9998;stroke-linecap:round;stroke-miterlimit:9.9996;}
	.st34{fill:none;stroke:#59221D;stroke-width:5;stroke-linecap:round;stroke-miterlimit:10;stroke-dasharray:20;}
	.st35{fill:#FFFFFF;stroke:#F3B304;stroke-width:5;stroke-miterlimit:10;}
	.st36{fill:none;stroke:#FFFFFF;stroke-width:5;stroke-linecap:round;stroke-miterlimit:10;}
	.st37{fill:none;stroke:#98C8DB;stroke-width:5;stroke-miterlimit:10;}
	.st38{fill:none;stroke:#F3B304;stroke-width:5;stroke-linecap:round;stroke-miterlimit:10;}
	.st39{fill:#CEE4ED;}
	.st40{fill:none;stroke:#59221D;stroke-width:5;stroke-linejoin:round;}
	.st41{fill:#FFFFFF;stroke:#59221D;stroke-width:5;stroke-linejoin:round;stroke-miterlimit:4;}
	.st42{fill:none;stroke:#59221D;stroke-width:3;stroke-linecap:round;stroke-miterlimit:10;}
</style>
<g id="SUITCASE">
	<path class="st0" d="M331.3,1151.3l-87.7,268.2c-6.7,20.6-28.9,31.8-49.5,25.1l0,0l-161-52.6c-20.5-6.8-31.6-28.9-24.9-49.4
		l87.7-268.2c6.7-20.5,28.7-31.8,49.2-25.2l161.1,52.7C326.9,1108.6,338.1,1130.7,331.3,1151.3z"/>
	<path class="st1" d="M179.7,1107.4l-85.8,262.5c-6.6,20.1-28.5,30.9-49,24.4c-20.4-6.8-31.7-28.5-25.1-48.6l85.8-262.5
		c6.6-20.1,28.5-31,49-24.4C175,1065.6,186.2,1087.3,179.7,1107.4z"/>
	<path class="st2" d="M170,1098.6l-87.7,268.2c-6.4,20.6-28.3,32-48.8,25.6c-20.6-6.4-32-28.3-25.6-48.8c0.1-0.3,0.2-0.6,0.3-1
		l87.7-268.2c6.4-20.6,28.3-32,48.8-25.6c20.6,6.4,32,28.3,25.6,48.8C170.2,1097.9,170.1,1098.2,170,1098.6L170,1098.6z"/>
	
		<ellipse transform="matrix(0.3107 -0.9505 0.9505 0.3107 -1260.3878 1182.1895)" class="st3" cx="184.9" cy="1460.1" rx="10.3" ry="10.3"/>
	
		<ellipse transform="matrix(0.301 -0.9536 0.9536 0.301 -1309.543 1055.5376)" class="st3" cx="65.2" cy="1421" rx="10.3" ry="10.3"/>
	
		<rect x="183.8" y="974.9" transform="matrix(0.3107 -0.9505 0.9505 0.3107 -790.9385 936.4706)" class="st3" width="132.9" height="77.4"/>
	
		<rect x="267.1" y="900.9" transform="matrix(0.3107 -0.9505 0.9505 0.3107 -717.011 911.9208)" class="st4" width="6.2" height="98.9"/>
	<line class="st5" x1="205.8" y1="1116" x2="120.1" y2="1378.4"/>
	<line class="st5" x1="236.2" y1="1125.9" x2="150.4" y2="1388.4"/>
	<line class="st5" x1="266.6" y1="1135.8" x2="180.8" y2="1398.3"/>
	<line class="st5" x1="296.9" y1="1145.7" x2="211.1" y2="1408.2"/>
	
		<rect x="254.6" y="1151.4" transform="matrix(0.3107 -0.9505 0.9505 0.3107 -934.8694 1068.4938)" class="st6" width="29.3" height="54.9"/>
	<rect x="180.6" y="1214" class="st7" width="42.1" height="42.1"/>
	
		<rect x="197.9" y="1301.5" transform="matrix(0.3107 -0.9505 0.9505 0.3107 -1109.5281 1109.0629)" class="st1" width="24.1" height="36.1"/>
</g>
<g id="Layer_2_1_">
	<g id="Слой_1">
		<g id="AIRPORT">
			<path class="st5" d="M3593.4,817.2H2061.8c103.8-284.7,407.4-490.8,765.8-490.8S3489.6,532.5,3593.4,817.2z"/>
			<path class="st8" d="M3546.7,819.3h-1417c88.7-243.4,402-426.5,708.5-426.5S3458,575.8,3546.7,819.3z"/>
			<path class="st5" d="M3557.7,817.2H2097.5c91.4-250.9,414.3-439.5,730.1-439.5S3466.3,566.3,3557.7,817.2z"/>
			<line class="st5" x1="2920" y1="305.6" x2="2920" y2="329.9"/>
			<line class="st5" x1="2734.2" y1="329.9" x2="2734.2" y2="305.6"/>
			<rect x="2715.7" y="278.1" class="st9" width="235.1" height="32.7"/>
			<rect x="2710" y="272.4" class="st5" width="235.1" height="32.7"/>
			<line class="st10" x1="2838.2" y1="390" x2="2838.2" y2="813.3"/>
			<line class="st10" x1="2966.5" y1="399.5" x2="2966.5" y2="813.3"/>
			<line class="st10" x1="3094.8" y1="429.2" x2="3094.8" y2="813.3"/>
			<line class="st10" x1="3223.1" y1="481.9" x2="3223.1" y2="813.3"/>
			<line class="st10" x1="3379" y1="581.7" x2="3379" y2="813.3"/>
			<line class="st10" x1="2710" y1="400.6" x2="2710" y2="813"/>
			<line class="st10" x1="2581.7" y1="430.2" x2="2581.7" y2="813"/>
			<line class="st10" x1="2453.5" y1="483" x2="2453.5" y2="813"/>
			<line class="st10" x1="2325.2" y1="561.8" x2="2325.2" y2="813"/>
		</g>
		<g id="SPOTLIGHT">
			<circle class="st9" cx="3195.7" cy="24.8" r="16"/>
			<circle class="st9" cx="3273.9" cy="24.8" r="16"/>
			<circle class="st9" cx="3352.1" cy="24.8" r="16"/>
			<circle class="st9" cx="3430.3" cy="24.8" r="16"/>
			<line class="st5" x1="3156.9" y1="0" x2="3457.7" y2="0"/>
			<line class="st5" x1="3156.9" y1="48.6" x2="3457.7" y2="48.6"/>
			<line class="st5" x1="3307.3" y1="131.3" x2="3307.3" y2="817.3"/>
			<polyline class="st5" points="3391.2,48.8 3307.3,131.3 3223.4,48.8 			"/>
			<circle class="st5" cx="3188.4" cy="24.1" r="16"/>
			<circle class="st5" cx="3266.6" cy="24.1" r="16"/>
			<circle class="st5" cx="3344.8" cy="24.1" r="16"/>
			<circle class="st5" cx="3423" cy="24.1" r="16"/>
		</g>
		<g id="BUSH">
			<path class="st5" d="M3581.2,727.8c14.5,0,27.4,9.1,32.4,22.7"/>
			<path class="st11" d="M3694.9,819.4v-1.8c-11.7-30.8-43.3-52.8-80.4-52.8c-11.1,0-22.2,2-32.6,6c-4.5,1.7-9.3-1.4-9.2-5.9v-0.1
				c0-9.5-1.8-18.9-5.4-27.7c-12.1-30.2-43.3-51.6-79.9-51.6s-67.8,21.5-79.9,51.6c-0.3,0.7-0.5,1.4-0.8,2.1c-1-0.7-2.1-1.4-3.1-2.1
				c-29.3-18.1-66.3-18.1-95.5,0c-22.6,14.3-37.5,38.4-37.5,65.8v0.1c0,3.7-4.7,5.8-7.8,3.4c-17-13.2-39.9-21.3-65-21.3
				c-32.5,0-61.2,13.6-78.4,34.3H3694.9z"/>
			<path class="st5" d="M3535,801.9c-15.6-10.3-35-9.8-48.6-0.3c-0.3,0.2-0.6,0.4-0.9,0.7c-0.2-0.6-0.5-1.2-0.8-1.8
				c-7.4-15.9-23.2-26.3-40.8-26.8c-13.7-0.2-26.8,5.9-34.5,17.6l0,0"/>
		</g>
		<g id="TAXI_DRIVER">
			<line id="GROUND" class="st5" x1="1937.9" y1="1356.9" x2="3374.7" y2="1356.9"/>
			<g id="BACK_WHEEL">
				<path class="st0" d="M1639.9,1244.6c0,62,45.9,112.3,102.5,112.3h-27.1c-58.7,0-101.8-50.3-101.8-112.3s43.1-112.3,101.8-112.3
					h27.1C1685.8,1132.3,1639.9,1182.5,1639.9,1244.6z"/>
				<path class="st0" d="M1743.9,1132.3h-1.5H1743.9z"/>
				<path class="st0" d="M1743.9,1356.9h-1.5H1743.9z"/>
				<path class="st12" d="M1844.9,1244.6c0,61.5-45.1,111.4-101,112.3h-1.5c-56.6,0-102.5-50.3-102.5-112.3s45.9-112.3,102.5-112.3
					h1.5C1799.8,1133.2,1844.9,1183.1,1844.9,1244.6z"/>
				<ellipse class="st2" cx="1742.4" cy="1245.5" rx="73" ry="80"/>
			</g>
			<g id="CAR">
				<path class="st11" d="M3546.8,982.3V1244H1540.9v-223.5c0-30.6,17.9-58.4,45.7-71.1l288.8-112.9l182.8-286.9
					c16.1-25.2,43.9-40.5,73.8-40.5h673.1c155.8,0,218.6,48.5,292.2,133.1l55.9,64.2c37.9,43.5,81.6,81.5,129.9,112.9h174
					c49.3,0,89.3,40,89.3,89.3v66.5C3546.6,977.6,3546.8,979.9,3546.8,982.3z"/>
				<path class="st7" d="M3544.8,944.5v286.1H1549.5V1023c0-28.8,29.5-54.9,56.7-66.8l283.3-106.1h1560.8
					C3502.5,850.1,3544.8,892.4,3544.8,944.5z"/>
				<path class="st0" d="M1512.1,1194.2h2083.1c14,0,25.3,11.3,25.3,25.3v0.4c0,14-11.3,25.3-25.3,25.3H1512.1
					c-14,0-25.3-11.3-25.3-25.3v-0.4C1486.7,1205.5,1498.1,1194.2,1512.1,1194.2z"/>
			</g>
			<g id="BACK_WINDOWS">
				<path class="st5" d="M3084.1,692.3v145.1h-451.3V561.2c0-17.7,14.3-32,32-32l0,0h127.7c130.1,0,196.1,38.8,267.9,107.5
					C3075.5,651.3,3084.1,671.3,3084.1,692.3z"/>
				<path class="st5" d="M3199.7,837.4h-93.8V700.2c0-2.8,2.3-5.1,5.1-5.1c1.5,0,2.9,0.6,3.8,1.7l25.8,29.7
					c22.4,25.7,46.9,49.6,73.2,71.3C3230,811.2,3220.6,837.4,3199.7,837.4z"/>
			</g>
			<g id="SITTING">
				<path class="st12" d="M3084.1,801.1v36.2h-40.6v-36.2c0-40.2-32.6-72.8-72.8-72.8l0,0h40.7
					C3051.5,728.3,3084.1,760.9,3084.1,801.1L3084.1,801.1z"/>
				<path class="st0" d="M3043.5,801.1v36.2H2633v-109h337.7C3010.9,728.3,3043.5,760.9,3043.5,801.1L3043.5,801.1z"/>
			</g>
			<g id="DRIVER">
				<path id="SHADOW" class="st4" d="M2543.9,1006.5v0.3c-35.8,0-70-14.9-94.4-41.2l-120.9-130.3h45.2l66.5,107.5
					C2462.8,979.3,2501.2,1002.9,2543.9,1006.5L2543.9,1006.5z"/>
				<g id="SHIRT">
					<path class="st1" d="M2227.7,680.2h221.2c38.3,0,73.2,22.1,89.5,56.7l29,61.3l57.7-70.2c12.9-15.6,34.8-20.4,53-11.5l55.2,27.1
						c21.7,10.6,30.6,36.8,20,58.4c-0.5,1-1,2-1.6,3l-80,135.5c-24.3,41.2-68.6,66.4-116.4,66.4l0,0c-46.8,0-90.3-24.2-115-64.1
						l-66.5-107.5h-302.6l74.1-111.1C2163.6,696.7,2194.5,680.2,2227.7,680.2z"/>
					<g class="st13">
						<path class="st14" d="M2480.9,685.5v299.2c-1.1-0.7-2.2-1.5-3.3-2.3v-298C2478.7,684.8,2479.8,685.1,2480.9,685.5z"/>
						<path class="st14" d="M2501.6,695.4v300.5c-1.1-0.5-2.2-1-3.3-1.5v-301C2499.4,694,2500.5,694.7,2501.6,695.4z"/>
						<path class="st14" d="M2522.3,712.7v290.2c-1.1-0.3-2.2-0.6-3.3-0.9V709.2C2520.1,710.4,2521.2,711.5,2522.3,712.7z"/>
						<path class="st14" d="M2542.9,746.5v260c-1.1-0.1-2.2-0.2-3.3-0.3V739.4l1.3,2.8L2542.9,746.5z"/>
						<path class="st14" d="M2563.6,790.2v216.5c-1.1,0.1-2.2,0.1-3.3,0.2V783.2l0.2,0.4L2563.6,790.2z"/>
						<path class="st14" d="M2584.2,777.7v226.1c-1.1,0.2-2.2,0.5-3.3,0.7V781.8l1.3-1.5L2584.2,777.7z"/>
						<path class="st14" d="M2604.9,752.6v244.9c-1.1,0.4-2.2,0.9-3.3,1.3V756.7L2604.9,752.6z"/>
						<path class="st14" d="M2625.5,727.5v259.7c-1.1,0.7-2.2,1.3-3.3,2V731.5l2.8-3.4L2625.5,727.5z"/>
						<path class="st14" d="M2646.2,714v257.8c-1.1,1-2.2,2-3.3,2.9V715.2C2644,714.7,2645.1,714.3,2646.2,714z"/>
						<path class="st14" d="M2666.9,712.9v235.3h-0.1c-1.1,1.5-2.1,3-3.2,4.5V712.4C2664.6,712.5,2665.8,712.7,2666.9,712.9z"/>
						<polygon class="st14" points="2687.5,721.3 2687.5,913.6 2684.2,919.3 2684.2,719.6 						"/>
						<polygon class="st14" points="2708.2,731.4 2708.2,878.7 2705.7,882.9 2704.9,884.3 2704.9,729.8 						"/>
						<polygon class="st14" points="2728.8,741.5 2728.8,843.7 2727.7,845.6 2725.5,849.3 2725.5,739.9 						"/>
						<path class="st14" d="M2749.5,757.4v51.3l-3.3,5.6v-61C2747.4,754.6,2748.5,756,2749.5,757.4z"/>
						<path class="st14" d="M2192.4,686.7v148.7h-3.3V688C2190.2,687.6,2191.3,687.1,2192.4,686.7z"/>
						<path class="st14" d="M2213,681.3v154.1h-3.3V681.8C2210.8,681.6,2211.9,681.4,2213,681.3z"/>
						<rect x="2230.4" y="680.2" class="st14" width="3.3" height="155.2"/>
						<rect x="2251" y="680.2" class="st14" width="3.3" height="155.2"/>
						<rect x="2271.7" y="680.2" class="st14" width="3.3" height="155.2"/>
						<rect x="2292.3" y="680.2" class="st14" width="3.3" height="155.2"/>
						<rect x="2313" y="680.2" class="st14" width="3.3" height="155.2"/>
						<rect x="2333.7" y="680.2" class="st14" width="3.3" height="155.2"/>
						<rect x="2354.3" y="680.2" class="st14" width="3.3" height="155.2"/>
						<polygon class="st14" points="2378.3,680.2 2378.3,842.8 2378,842.2 2375,837.4 2375,680.2 						"/>
						<polygon class="st14" points="2399,680.2 2399,876.2 2395.6,870.8 2395.6,680.2 						"/>
						<polygon class="st14" points="2419.6,680.2 2419.6,909.6 2416.3,904.2 2416.3,680.2 						"/>
						<path class="st14" d="M2440.3,680.2V943v-0.1l-3.3-5.3V680.2H2440.3z"/>
						<path class="st14" d="M2460.9,680.9v287.8c-1.1-1-2.1-2.1-3.2-3.2l-0.2-0.2V680.6C2458.7,680.7,2459.8,680.8,2460.9,680.9z"/>
						<polygon class="st14" points="2089.1,808.6 2089.1,835.4 2085.8,835.4 2085.8,813.6 						"/>
						<polygon class="st14" points="2109.7,777.6 2109.7,835.4 2106.4,835.4 2106.4,782.6 2108,780.3 						"/>
						<polygon class="st14" points="2130.4,746.6 2130.4,835.4 2127.1,835.4 2127.1,751.6 						"/>
						<path class="st14" d="M2151.1,716.5v118.9h-3.3V720.8c0.6-0.8,1.2-1.7,1.9-2.5C2150.1,717.6,2150.6,717,2151.1,716.5z"/>
						<path class="st14" d="M2171.7,697.5v137.9h-3.3V699.9c1-0.8,2.1-1.5,3.2-2.3L2171.7,697.5z"/>
						<path class="st14" d="M2627.3,986.2c-0.6,0.4-1.1,0.7-1.7,1.1c-1.1,0.7-2.2,1.3-3.3,2c-0.2,0.1-0.3,0.2-0.5,0.3h-133
							c-1.9-1.1-3.8-2.2-5.6-3.3L2627.3,986.2z"/>
						<path class="st14" d="M2652.6,965.5c-1.1,1.1-2.2,2.2-3.3,3.3h-188.2c-0.1,0-0.1-0.1-0.2-0.1c-1.1-1-2.1-2.1-3.2-3.2H2652.6z"
							/>
						<path class="st14" d="M2669,944.9c-0.7,1.1-1.4,2.1-2.1,3.2v0.2h-223.2c-0.8-1.1-1.5-2.2-2.2-3.3H2669V944.9z"/>
						<polygon class="st14" points="2681.3,924.2 2679.3,927.5 2430.7,927.5 2428.7,924.2 						"/>
						<polygon class="st14" points="2693.5,903.5 2691.5,906.9 2418,906.9 2416.3,904.2 2415.9,903.5 						"/>
						<polygon class="st14" points="2705.7,882.9 2704.9,884.3 2703.7,886.2 2405.2,886.2 2403.1,882.9 						"/>
						<polygon class="st14" points="2717.5,862.9 2715.5,866.2 2392.8,866.2 2390.8,862.9 						"/>
						<polygon class="st14" points="2729.7,842.2 2728.8,843.7 2727.7,845.6 2380,845.6 2378.3,842.8 2378,842.2 						"/>
						<polygon class="st14" points="2741.9,821.6 2739.9,824.9 2078.2,824.9 2080.4,821.6 						"/>
						<path class="st14" d="M2753.8,800.9c-0.5,1.1-1.1,2.2-1.7,3.3H2092l2.2-3.3H2753.8z"/>
						<polygon class="st14" points="2560.4,783.6 2105.8,783.6 2106.4,782.6 2108,780.3 2558.9,780.3 2560.2,783.2 						"/>
						<polygon class="st14" points="2757.9,780.3 2757.9,783.6 2579.4,783.6 2580.9,781.8 2582.2,780.3 						"/>
						<polygon class="st14" points="2550.7,762.9 2119.5,762.9 2121.7,759.6 2549.1,759.6 						"/>
						<polygon class="st14" points="2746.7,759.6 2746.7,762.9 2596.4,762.9 2599.2,759.6 						"/>
						<polygon class="st14" points="2540.9,742.3 2133.3,742.3 2135.5,738.9 2539.6,738.9 2539.6,739.4 						"/>
						<polygon class="st14" points="2730.4,742.3 2613.4,742.3 2616.1,738.9 2723.6,738.9 2725.5,739.9 2728.8,741.5 						"/>
						<path class="st14" d="M2529.4,721.6h-382.3c0.2-0.3,0.4-0.6,0.6-0.8c0.6-0.8,1.2-1.7,1.9-2.5h377.3
							C2527.8,719.4,2528.6,720.5,2529.4,721.6z"/>
						<path class="st14" d="M2688.2,721.6h-56.6c1.5-1.2,3.1-2.3,4.8-3.3h44.9l2.8,1.4l3.3,1.6L2688.2,721.6z"/>
						<path class="st14" d="M2509.5,700.9H2167c0.5-0.3,0.9-0.7,1.4-1.1c1-0.8,2.1-1.5,3.2-2.3H2505
							C2506.5,698.7,2508,699.8,2509.5,700.9z"/>
					</g>
					<line class="st5" x1="2609" y1="749.6" x2="2536.9" y2="837.4"/>
					<path class="st5" d="M2455.6,680.2L2455.6,680.2c32.1,0,61.5,18.1,75.9,46.8l35.9,71.3"/>
					<line class="st5" x1="2373.1" y1="838.7" x2="2356.4" y2="804.6"/>
					<path class="st5" d="M2306.1,680.2H2275l31.5-19.3v80.4l69.9-60.4l-6.1-20h8.9c3.9,0,7.8,1.1,11.1,3.3l24.7,16h-38"/>
				</g>
				<g id="NECK">
					<polygon class="st15" points="2375.1,680.2 2307.9,740.6 2307.9,637.2 2361.9,637.2 					"/>
					<polygon class="st16" points="2361.9,637.2 2375.1,680.2 2307.9,653.5 2307.9,637.2 					"/>
				</g>
				<g id="HEAD">
					<path id="HAIR" class="st16" d="M2363.5,610v1.7h-2.4c-4,0-7.3,3.3-7.3,7.3l0,0v1.2c-5.6-0.1-10.5-3.9-12.1-9.3l-1.2-4
						c-2.1-7.1-8.6-12-15.9-12h-8.4c-9.2,0-16.6,7.4-16.6,16.6l0,0V610c0-13.5,10.9-24.4,24.4-24.4l0,0h15.1
						C2352.5,585.5,2363.5,596.5,2363.5,610L2363.5,610z"/>
					<path id="HEAD-2" class="st15" d="M2379.8,624.7c0,7.2-5.8,13-13,13H2356l-4.7,7.4c-2.4,3.8-6.5,6.1-11,6.1h-27.9
						c-7.2,0-13-5.8-13-13v-26.9c0-9.2,7.4-16.6,16.6-16.6l0,0h8.4c7.4,0,13.9,4.9,15.9,12l1.2,4c1.6,5.4,6.4,9.2,12.1,9.3v-1
						c0-4,3.3-7.3,7.3-7.3l0,0h5.7C2373.9,611.6,2379.8,617.5,2379.8,624.7L2379.8,624.7z"/>
					<g id="FACE">
						<path class="st17" d="M2361,625.6c0-4,3.3-7.3,7.3-7.3"/>
						<path class="st17" d="M2313.7,631.8c-7.7,0-3.5-19.2-3.5-19.2s-5.4-1.2-10,0"/>
						<path class="st17" d="M2322.8,611.4c0,0,7.2-0.4,12.3,2"/>
						<ellipse class="st16" cx="2326.9" cy="620.9" rx="1.9" ry="3.2"/>
						<ellipse class="st16" cx="2302.9" cy="620.9" rx="1.8" ry="3"/>
						<path class="st17" d="M2315.3,638.4c0,0,8.1,0.7,9.7-2"/>
					</g>
				</g>
				<g id="HAND">
					<path class="st16" d="M2757.3,777.2c-16.5,8.5-38.9,6.9-51.3-1l-26.2-16.9c-15.1-9.7-24.7-29.2-19.5-47.1
						c1.1,0,2.1,0.1,3.2,0.2c1.1,0.1,2.2,0.3,3.3,0.5c3.9,0.7,7.6,2,11.1,3.7l3.4,1.7l2.8,1.4l3.3,1.6l0.7,0.3l16.6,8.2l3.3,1.6
						l15.4,7.5l1.9,0.9l3.3,1.6l1.5,0.8l2.8,1.4c4.9,2.4,9.3,5.6,12.9,9.6c1.2,1.3,2.3,2.7,3.3,4.1
						C2753.7,763.3,2756.4,770.1,2757.3,777.2z"/>
					<path class="st15" d="M2685.7,747.5c-16.6-10.6-23.8-31.2-17.3-49.9c9.2-26.3,25.9-62.5,40.9-61.7c7.6,0.4,0.6,28.3,11.9,28.7
						c13.3,0.5,65.7-77.2,78.9-68.6c13.3,8.7,30.3,72.6,15.7,100.9c-7.9,15.4-32.6,43.4-53.9,62.4c-14.2,12.6-35.1,14.3-51.1,4.1
						L2685.7,747.5z"/>
					<path class="st17" d="M2818.7,654.8c-3.3,6.3-22,36.7-28.4,45.7"/>
					<path class="st17" d="M2814.5,630c-3.3,6.3-28.5,43.3-35.6,52.2"/>
					<path class="st17" d="M2807.4,609.5c-3.3,6.3-33.2,42.4-40.4,51.3"/>
					<path class="st17" d="M2718.4,677.6c0,0,12.1,32.4-1.8,60.5"/>
				</g>
			</g>
			<path id="STEERING_WHEEL" class="st5" d="M2101.9,837.4H1981c-2-37.4,18.5-66.2,49-66.5C2060.9,770.6,2091.4,799.6,2101.9,837.4z
				"/>
			<g id="WHEELS">
				<path class="st4" d="M3084.6,1245.8h300c-2.5-74.1-54.3-146.1-150.1-146.1C3152,1099.6,3088.9,1168.6,3084.6,1245.8z"/>
				<path class="st5" d="M3399.2,1172.7c-28.4-66.3-91.5-112.4-164.8-112.4c-75.8,0-140.8,49.4-167.6,119.3"/>
				<path class="st12" d="M3248.1,1356.9H3221c-58.7,0-101.7-50.3-101.7-112.3s43.1-112.3,101.7-112.3h27.1
					c-56.6,0-102.5,50.3-102.5,112.3S3191.5,1356.9,3248.1,1356.9z"/>
				<path class="st0" d="M3350.5,1244.6c0,61.5-45.1,111.4-101,112.3h-1.5c-56.6,0-102.5-50.3-102.5-112.3s45.9-112.3,102.5-112.3
					h1.5C3305.5,1133.2,3350.5,1183.1,3350.5,1244.6z"/>
				<ellipse class="st2" cx="3248.1" cy="1245.5" rx="73" ry="80"/>
				<path class="st4" d="M1924,1245.8h300c-2.5-74.1-54.3-146.1-150.1-146.1C1991.4,1099.6,1928.3,1168.6,1924,1245.8z"/>
				<path class="st5" d="M2238.7,1172.7c-28.4-66.3-91.5-112.4-164.8-112.4c-75.8,0-140.8,49.4-167.6,119.3"/>
				<path class="st12" d="M2087.5,1356.9h-27.1c-58.7,0-101.8-50.3-101.8-112.3s43.1-112.3,101.8-112.3h27.1
					c-56.6,0-102.5,50.3-102.5,112.3S2030.9,1356.9,2087.5,1356.9z"/>
				<path class="st0" d="M2190,1244.6c0,61.5-45.1,111.4-101,112.3h-1.5c-56.6,0-102.5-50.3-102.5-112.3s45.9-112.3,102.5-112.3h1.5
					C2144.9,1133.2,2190,1183.1,2190,1244.6z"/>
				<ellipse class="st2" cx="2087.5" cy="1245.5" rx="73" ry="80"/>
			</g>
			<g id="HEADLIGHTS">
				<path class="st14" d="M3546.4,968.3h-59c-10.2,0-19.4-6.5-23.6-16.6l-12.3-30c-3.6-8.7,2.3-18.5,11-18.5h83.9L3546.4,968.3
					L3546.4,968.3z"/>
				<path class="st5" d="M3546.5,968.3h-71.3c-11,0-21.1-6.5-25.6-16.6l-13.4-30c-3-6.6,0-14.4,6.6-17.3c1.7-0.8,3.5-1.1,5.4-1.1
					h98.3V968.3z"/>
				<line class="st5" x1="3546.1" y1="925.6" x2="3439.1" y2="925.6"/>
				<line class="st5" x1="3546.1" y1="946.6" x2="3447.8" y2="946.6"/>
				<path class="st14" d="M1819.9,1052h-25.1v-27c0-33.2,19.5-63.4,49.8-77l9.4-4.3v74.1C1854.1,1036.7,1838.8,1052,1819.9,1052
					C1820,1052,1820,1052,1819.9,1052z"/>
				<path class="st14" d="M1568.7,1054.7h-25.1v-27c0-33.2,19.5-63.4,49.8-77l9.4-4.3v74.2
					C1602.8,1039.4,1587.5,1054.7,1568.7,1054.7L1568.7,1054.7z"/>
			</g>
			<g id="CONTOURS">
				<path class="st5" d="M2637.4,1172.7H2997c16.6-49.6,46.8-93.5,87.1-126.6V851.4"/>
				<path class="st5" d="M2611.1,721.6V561.2c0-17.7-14.3-32-32-32l0,0h-459.8c-29.9,0-57.7,15.3-73.8,40.5"/>
				<path class="st5" d="M2146.6,1020.6c72.7,24.3,130.5,80.2,157.1,152h307.4v-159.1"/>
				<path class="st5" d="M2949.4,878.1c-2.6-5.3,3-10.6,6.7-10.6h74.1c3.7,0,8.6,4.1,6.7,10.6"/>
				<path class="st5" d="M1794.8,1244.1v-223.5c0-30.6,17.9-58.4,45.7-71.1l288.8-112.9l182.8-286.9c16.1-25.2,43.9-40.5,73.8-40.5"
					/>
				<line class="st5" x1="2368.7" y1="837.4" x2="1874.9" y2="837.4"/>
			</g>
			<g id="MIRRORS">
				<path class="st11" d="M1885.9,820.1l-8.1,12.7c-4.9-5.2-5.5-6-18.2-6h-35.9c-11.7,0-21.1-9.4-21.1-21.1l0,0v-12.8
					c0-11.7,9.5-21.1,21.1-21.1l0,0h13.5c11.9,0,23,6.1,29.4,16.1L1885.9,820.1z"/>
				<path class="st14" d="M1878.7,831.4l-1.7,2.6c-1.6-1.3-3.4-2.3-5.3-3.2c-7-3.3-15.3-4-26.1-4h-36c-11.7,0-21.1-9.4-21.1-21.1
					l0,0v-12.8c0-11.7,9.5-21.1,21.1-21.1l0,0h13.5c11.9,0,23,6.1,29.4,16.1L1878.7,831.4z"/>
				<path class="st7" d="M1788.6,793.4v12.2c0,11.7,9.4,21.1,21.1,21.1l0,0h36c10.8,0,19,0.6,26.1,4l-20.6-34.4
					c-6.4-10.1-17.5-16.1-29.4-16.1h-13.5C1799.6,780.2,1791.8,785.5,1788.6,793.4z"/>
				<path class="st5" d="M1878.7,831.4l-1.7,2.6c-8.2-6.2-17.8-7.2-31.4-7.2h-36c-11.7,0-21.1-9.4-21.1-21.1l0,0v-12.8
					c0-11.7,9.5-21.1,21.1-21.1l0,0h13.5c11.9,0,23,6.1,29.4,16.1L1878.7,831.4z"/>
				<path class="st14" d="M2279.9,793.4v12.8c0,11.7-9.4,21.1-21.1,21.1l0,0h-71.2c-10.8,0-19,0.6-26.1,4c-3,1.5-5.8,3.4-8.3,5.8
					h-1.8l29.1-48.6c6.4-10.1,17.5-16.1,29.4-16.1h48.8C2270.4,772.2,2279.9,781.7,2279.9,793.4
					C2279.9,793.3,2279.9,793.4,2279.9,793.4z"/>
				<path class="st7" d="M2279.9,793.9v12.2c0,11.7-9.4,21.1-21.1,21.1l0,0h-71.2c-10.8,0-19,0.6-26.1,4l20.6-34.4
					c6.4-10.1,17.5-16.1,29.4-16.1h48.8C2268.9,780.7,2276.7,785.9,2279.9,793.9z"/>
				<path class="st5" d="M2279.9,793.4v12.8c0,11.7-9.4,21.1-21.1,21.1l0,0h-71.2c-15.3,0-25.5,1.3-34.3,9.7h-1.8l29.1-48.6
					c6.4-10.1,17.5-16.1,29.4-16.1h48.8C2270.4,772.2,2279.9,781.7,2279.9,793.4C2279.9,793.3,2279.9,793.4,2279.9,793.4z"/>
			</g>
		</g>
		<g id="WOMAN">
			<g id="GROUND-2">
				<line class="st5" x1="987.8" y1="1503.4" x2="1905.3" y2="1503.4"/>
				<line class="st5" x1="1281.3" y1="1533.1" x2="1796.3" y2="1533.1"/>
			</g>
			<g id="WOMAN-2">
				<g id="RIGHT_HAND">
					<path class="st1" d="M1750,507.7h46c5.7,0,10.4,4.6,10.4,10.4v93.1c0,5.7-4.6,10.4-10.4,10.4h-46c-5.7,0-10.4-4.6-10.4-10.4
						v-93.1C1739.6,512.3,1744.3,507.7,1750,507.7z"/>
					<path class="st18" d="M1798.2,639.1l-42.5,8.7c-5.7-8-12.1-15.5-19-22.5c-15.3-15.6-31.6-27-43-31l8.3-35.1
						c1.8-7.8,8.6-13.4,16.6-13.7l21.1-0.8l0,0c0,8.5,6.9,15.5,15.5,15.5c0.1,0,0.2,0,0.3,0l35.9-0.7c8.4-0.2,15.1-7,15.1-15.4v-6.3
						c5.2,0.3,9.4,4.5,9.6,9.8l2.6,63.1C1819.2,623.8,1810.8,635.5,1798.2,639.1z"/>
					<path class="st5" d="M1815.1,561.3c0.5,13.1-14.6,18.2-29.3,19.9"/>
					<path class="st5" d="M1815.7,580.3c0.5,13.1-14.6,18.2-29.3,19.9"/>
					<path class="st5" d="M1817.3,598.7c0.5,13.1-14.6,17.5-29.3,19.2"/>
					<circle class="st19" cx="1793.8" cy="520.7" r="3.9"/>
				</g>
				<g id="LEGS">
					<g id="LEGS-2">
						<g id="LEFT">
							<polygon class="st18" points="1177.9,960.3 1328.5,1000.6 1178.3,1416.3 1019.3,1416.3 							"/>
							<polygon class="st4" points="1177.9,960.3 1328.5,1000.6 1314,1040.8 1163.9,1000.6 							"/>
						</g>
						<g id="RIGHT">
							<polygon class="st18" points="1510.5,1416.3 1357.5,1416.3 1342.9,1000.6 1483.7,1000.6 							"/>
							<polygon class="st4" points="1484.4,1011.2 1344.6,1049 1344.6,1049 1342.9,1000.6 1483.7,1000.6 							"/>
						</g>
					</g>
					<g id="SHOES">
						<g id="LEFT-2">
							<path class="st0" d="M1182.8,1476.6L1182.8,1476.6c4.9,1.9,8.1,6.6,8.1,11.9v14.9h-168c-12.8,0-23.2-10.4-23.1-23.2
								c0-2.6,0.4-5.2,1.3-7.6l19.8-56.8l155.7,0.7l-7.5,21.9C1163.9,1452.8,1169.7,1468.8,1182.8,1476.6L1182.8,1476.6z"/>
							<path class="st20" d="M1190.9,1503.4h-168c-12.8,0-23.2-10.4-23.1-23.2c0-2.6,0.4-5.2,1.3-7.6l4.1-11.8
								c-2.5,12.5,5.5,24.8,18.1,27.3c1.5,0.3,3.1,0.5,4.6,0.5h163V1503.4z"/>
							<path class="st20" d="M1123.1,1416.3l-3.4,12c-2.8,9.9,2.8,20.1,12.7,23c1.7,0.5,3.4,0.7,5.1,0.7h27.7l11.3-35.4
								L1123.1,1416.3z"/>
							<path class="st2" d="M1113.2,1416.3l-4.2,14.5c-3.5,11.9,3.4,24.4,15.3,27.9c2,0.6,4.1,0.9,6.3,0.9h38.5"/>
						</g>
						<g id="RIGHT-2">
							<path class="st0" d="M1542.2,1503.4h-155.9c-14.3,0-26.1-11.3-26.6-25.7l-0.7-61.8h0.2h149.9l3.3,32.5
								c1.1,10.9,7.9,20.4,17.8,25.1l0,0c7,3.2,11.5,10.2,11.7,17.9L1542.2,1503.4z"/>
							<path class="st20" d="M1542.2,1503.4h-155.9c-14.3,0-26.1-11.3-26.6-25.7l-0.2-14.5h0.2c0.6,14.2,12.3,25.4,26.6,25.4h155.4
								c0.1,0.9,0.2,1.8,0.2,2.7L1542.2,1503.4z"/>
							<path class="st20" d="M1513,1452h-16.4c-12.6,0-22.8-10.2-22.8-22.8l0,0v-13.3h35.4l3.3,32.5
								C1512.5,1449.6,1512.7,1450.8,1513,1452z"/>
							<path class="st2" d="M1515.8,1459.5h-23.7c-14.3,0-25.9-11.6-25.9-25.9v-17.8"/>
						</g>
					</g>
					<g id="SHORTS">
						<path class="st6" d="M1499.9,1000.6h-157l-1.3-36.4l-13.2,36.4l-150.6-40.3l79-226.9c45.6,28,209.6,0,209.6,0h2.1
							L1499.9,1000.6z"/>
						<polygon class="st14" points="1477.8,811.6 1477.8,1000.6 1473.5,1000.6 1473.5,775.5 						"/>
						<path class="st14" d="M1455.3,735.2v265.3h-4.2V735.9L1455.3,735.2z"/>
						<path class="st14" d="M1432.9,738.4v262.2h-4.3V738.9L1432.9,738.4z"/>
						<path class="st14" d="M1410.5,741v259.5h-4.2v-259L1410.5,741z"/>
						<path class="st14" d="M1388.1,743.2v257.3h-4.3v-257C1385.2,743.5,1386.7,743.4,1388.1,743.2z"/>
						<path class="st14" d="M1365.6,744.8v255.7h-4.3V745.1C1362.8,745,1364.2,744.9,1365.6,744.8z"/>
						<path class="st14" d="M1343.2,745.8v214.1l-4.2,11.7V745.9L1343.2,745.8z"/>
						<path class="st14" d="M1320.8,745.8v252.7l-4.3-1.1V745.7C1318,745.7,1319.4,745.7,1320.8,745.8z"/>
						<path class="st14" d="M1298.4,744.5v248.1l-4.2-1.1V744C1295.5,744.2,1296.9,744.3,1298.4,744.5z"/>
						<path class="st14" d="M1275.9,740.8v245.7l-4.2-1.1V739.7C1273.1,740.1,1274.5,740.5,1275.9,740.8z"/>
						<polygon class="st14" points="1253.5,743.1 1253.5,980.5 1249.3,979.4 1249.3,755.2 						"/>
						<polygon class="st14" points="1231.1,807.5 1231.1,974.5 1226.9,973.4 1226.9,819.7 						"/>
						<polygon class="st14" points="1208.7,872 1208.7,968.5 1204.4,967.4 1204.4,884.1 						"/>
						<path class="st4" d="M1469.3,739.4C1325.5,778,1243,774.3,1243,774.3l13.9-40.8c45.6,28,209.6,0,209.6,0h2.1L1469.3,739.4z"/>
						<polyline class="st21" points="1345.1,1000.6 1336.1,835.8 1305.2,809.9 						"/>
						<polygon class="st22" points="1432.9,837.7 1403.1,852.5 1373.2,837.7 1373.2,786.1 1432.9,786.1 						"/>
						<polygon class="st22" points="1280.7,837.7 1250.9,852.5 1221.1,837.7 1239.4,786.1 1280.7,786.1 						"/>
					</g>
				</g>
				<g id="BLOUSE">
					<path class="st0" d="M1765.2,678.1c-0.1,0.1-0.2,0.2-0.3,0.4l-95.5,104.3c-39.9,43.6-107.5,46.5-151.1,6.6
						c-17.6-16.1-29.2-37.6-33.2-61l-18.6-109.9v115c0,0-164.1,28-209.6,0l-65,185.8l0,0l0,0c-3.4,8.9-31.9,7.5-63.7-4.6
						c-31.8-12.1-55.8-28.6-52.6-37.6l0,0V877L1203,542.6c14.1-37.1,49.7-61.6,89.4-61.6h191.1c44.9,0,83.8,31.3,93.4,75.2
						l26.3,113.4l77.6-75.1c7-6.8,32.7,7.2,55.8,30.8C1759.5,648.6,1771.4,670.8,1765.2,678.1z"/>
					<path class="st0" d="M1191.9,919.3L1191.9,919.3L1191.9,919.3c-3.4,8.9-31.9,7.5-63.7-4.6c-31.8-12.1-55.8-28.6-52.6-37.6l0,0
						V877c3.6-8.8,33-6.7,64.7,5.4S1195.2,910.4,1191.9,919.3z"/>
				</g>
				<g id="BACKPACK">
					<path class="st5" d="M918.3,1149.2l50.1-144c8.8-25.4,36.5-38.8,61.9-29.9l80.2,27.9c25.4,8.8,38.8,36.5,29.9,61.9l-50.1,144
						c-8.8,25.4-36.5,38.8-61.9,29.9l-80.2-27.9C922.9,1202.3,909.5,1174.6,918.3,1149.2z"/>
					<path class="st5" d="M1127.4,1102.3l-37.1,106.7c-8.8,25.3-36.5,38.8-61.8,29.9l0,0l-80.2-27.9c-25.3-8.8-38.8-36.5-29.9-61.9
						l37.1-106.7c10.7-30.9,44.5-47.3,75.4-36.5l60,20.9C1121.8,1037.7,1138.1,1071.4,1127.4,1102.3L1127.4,1102.3z"/>
					<path class="st5" d="M990.4,1099.3l74,25.7c4.8,1.7,7.4,6.9,5.7,11.8l-3.6,10.4l0,0l-91.5-31.8l0,0l3.6-10.4
						C980.3,1100.1,985.6,1097.6,990.4,1099.3z"/>
					<path class="st1" d="M984.2,1125.9l85.2,29.6l0,0l-12.1,34.8c-2.4,7-10,10.6-17,8.2l0,0l-60-20.9c-7-2.4-10.6-10-8.2-17l0,0
						L984.2,1125.9L984.2,1125.9z"/>
					<path class="st5" d="M978.2,1116.5l85.2,29.6l0,0l-12.1,34.8c-2.4,7-10,10.6-17,8.2l0,0l-60-20.9c-7-2.4-10.6-10-8.2-17l0,0
						L978.2,1116.5L978.2,1116.5z"/>
					<polygon class="st5" points="1141,942.1 1120.4,1007 1037.5,977.6 1050,938.1 					"/>
				</g>
				<g id="LEFT_HAND">
					<path class="st18" d="M1178.4,903.5l-1.7,4.5l-6.2,16.9l-13.1,36c-2.8,8-10.4,13.4-18.9,13.4h-76.8c-11.1,0-20.1-9-20-20.1
						c0-2.3,0.4-4.6,1.2-6.8l9.3-26.1c2.1-5.8,7.6-9.7,13.8-9.7h15.8l5.9-17.5l0.8-2.4l6-17.8c12,0.7,28.6,4.3,45.2,10.7
						C1155.1,890.4,1169.1,897.1,1178.4,903.5z"/>
					<path class="st5" d="M1076.3,971.6c-10.6,0-19.2-8.6-19.2-19.2c0-2.2,0.4-4.4,1.1-6.5l8.2-23c2-5.6,7.3-9.3,13.2-9.3h56.5
						c3.8,0,6.8,3.1,6.8,6.8c0,0.8-0.1,1.5-0.4,2.3l-7.3,22l5.6-0.2"/>
					<path class="st5" d="M1102.2,971.6c-10.6,0-19.2-8.6-19.2-19.2c0-2.2,0.4-4.4,1.1-6.5l8.2-23c2-5.6,7.3-9.3,13.2-9.3"/>
					<path class="st5" d="M1130.9,973c-13.3,0-25.4-14.6-20.9-27.1l8.2-23c2-5.6,7.3-9.3,13.2-9.3"/>
					<path class="st4" d="M1088.3,892.3l6.2-19.1c12,0.7,28.2,4.3,45.1,10.7c15.7,6,29.6,12.8,38.9,19.3l-1.5,4.1L1088.3,892.3z"/>
				</g>
				<g id="HEAD-3">
					<g id="NECK-2">
						<path class="st18" d="M1439.3,444.9v37.6c0,0-34.5,12.2-58.2,0l26.7-48.5l2.1-3.9l0,0C1410.3,430.4,1420.2,442.1,1439.3,444.9
							z"/>
						<path class="st4" d="M1410,430.1c0,0,9.9,12,29.3,14.8v27l-31.5-38L1410,430.1z"/>
					</g>
					<path id="HAIR-2" class="st7" d="M1256.8,730.6l-221.6-159.9c0,0-2.9-90.7,92.1-103.8c43.9-6.1,59.3,16.1,94.4,11
						c35.6-5.2,20.9-59.9,73.4-71.7c35.1-7.9,45.3,17.3,70.6,5.1c17.3-8.3,27.1-38.8,58.9-38.8c23.6,0,27.1,18.5,27.1,18.5
						s-10.1,12.3-41.7,13.5v24.1c0,0,0,41.1-35.9,57.3c-26.2,11.8-13.1,30.7-4.4,67.1c11.4,47.9-31.9,83-74.1,92.3
						C1253.7,654.7,1244.2,696,1256.8,730.6z"/>
					<g id="HEAD-4">
						<path id="HEAD-5" class="st18" d="M1413.8,404.4c28.2-2,37.6-13,37.9-13.3l0,0l10.1,24.4c0.9,2.2-0.1,4.7-2.3,5.6
							c-0.1,0.1-0.3,0.1-0.4,0.2l-2.5,0.7l1.4,9c0.8,4.9-1.9,9.7-6.4,11.7c-4.3,1.9-9,2.6-13.6,2c-19.3-2.8-28-14.7-28-14.7h-3.6
							c-7.1,0-12.8-5.7-12.8-12.8s5.7-12.8,12.8-12.8L1413.8,404.4z"/>
						<path class="st5" d="M1404.8,411.6c4.5,0,8.1,3.6,8.1,8.1l0,0"/>
						<path class="st23" d="M1434.6,407.4c0,0,5.2-3.9,11-4"/>
						<ellipse class="st4" cx="1442.7" cy="413.4" rx="2" ry="3.5"/>
					</g>
				</g>
			</g>
		</g>
	</g>
</g>
<g id="MAN_ON_ESCALATOR">
	<g id="MAN">
		<g id="SHOES_1_">
			<path class="st4" d="M632.4,1458.3c25.2,0,48-7.6,64.9-20.1c2.4-1.7,4.6-3.6,6.8-5.6c17-12.5,40-18,65.1-18l27.2,25.7
				c4.7,4.5,8.5,9.9,11.1,15.9c2.6,6.4,3.9,13.3,3.9,20.3h-201v-20.2C617.6,1457.7,625,1458.3,632.4,1458.3z"/>
			<path class="st24" d="M743.1,1431.8c13.2-4.7,28.2-6.9,44.1-6.9"/>
			<path class="st24" d="M752,1443.4c13.2-4.7,28.2-6.9,44.1-6.9"/>
			<path class="st4" d="M382.3,1462.5c14.9-1.8,28.2-7.2,38.1-14.9c1.5-1.2,2.9-2.4,4.2-3.6c12.3-9.5,29.7-15.6,49-15.6
				c18.4,0,35,5.4,47.1,14.1c12.1,8.7,19.7,20.7,20.1,34H380L382.3,1462.5z"/>
			<path class="st24" d="M502.6,1442.1c-27.7-10.2-46,0-46,0"/>
			<path class="st24" d="M502.6,1454.8c-27.7-10.2-46,0-46,0"/>
		</g>
		<g id="PANTS">
			<path class="st25" d="M491,811.1v-91.3h254.4l23.8,694.8l0,0c-25.2,0-48.2,5.6-65.1,18.1c-2.2,2-4.4,3.8-6.8,5.6
				c-16.9,12.5-39.8,20.1-64.9,20.1c-7.4,0-14.8-0.7-22.1-2v-444.9l-78.6,441.2c-3.1-3.9-6.8-7.3-10.8-10.1
				c-12.1-8.8-28.8-14.1-47.1-14.1c-19.3,0-36.8,5.9-49,15.6c-1.3,1.3-2.8,2.5-4.2,3.6c-9.9,7.7-23.1,13.1-38,14.9L491,811.1z"/>
			<line class="st26" x1="638.4" y1="855.8" x2="534.3" y2="1450.1"/>
		</g>
		<path id="T-SHIRT" class="st18" d="M579.2,458.6c0.1,9.7,4,18.9,10.9,25.7c6.8,6.7,15.9,10.6,25.5,10.8
			c20.7,0.5,37.8-15.9,38.2-36.6l0,0v261.2h-74.6L579.2,458.6L579.2,458.6z"/>
		<g id="LAFT_ARM">
			<path class="st27" d="M756.9,1053.3C810,1029,808.3,942,808.3,942H753L756.9,1053.3z"/>
			<path class="st28" d="M779.2,975.7l-3.1,15.5c-1.8,9.1-9.4,15.9-18.6,16.8l0,0"/>
		</g>
		<g id="JACKET">
			<path class="st29" d="M375.6,955.9L491,696.3v114.9h85.6V458.6h-63c-41.1,0-77.8,25.4-92.3,63.8l-139.5,368L375.6,955.9z"/>
			<line class="st30" x1="514.9" y1="633.3" x2="491.1" y2="696.3"/>
			<path class="st29" d="M748.6,811.6h-92.2v-353h58.9l0,0c54.5,0,98.7,44.2,98.7,98.7v381.3h-61.6L748.6,811.6z"/>
			<line class="st30" x1="748.6" y1="599.3" x2="748.6" y2="811.6"/>
			<g id="PATTERN">
				<circle class="st27" cx="721.8" cy="468.9" r="6.1"/>
				<circle class="st27" cx="683.5" cy="467.7" r="6.1"/>
				<circle class="st27" cx="531.7" cy="467.7" r="6.1"/>
				<circle class="st27" cx="492.2" cy="470.2" r="6.1"/>
				<circle class="st27" cx="473" cy="487.6" r="6.1"/>
				<circle class="st27" cx="741" cy="487.6" r="6.1"/>
				<circle class="st27" cx="779.2" cy="495.3" r="6.1"/>
				<circle class="st27" cx="702.7" cy="487.6" r="6.1"/>
				<circle class="st27" cx="549.6" cy="487.6" r="6.1"/>
				
					<ellipse transform="matrix(0.1602 -0.9871 0.9871 0.1602 -51.9051 914.1928)" class="st27" cx="511.3" cy="487.6" rx="6.1" ry="6.1"/>
				<circle class="st27" cx="453.9" cy="507.6" r="6.1"/>
				<circle class="st27" cx="721.8" cy="507.6" r="6.1"/>
				<circle class="st27" cx="760.1" cy="507.6" r="6.1"/>
				<circle class="st27" cx="683.5" cy="507.6" r="6.1"/>
				<circle class="st27" cx="566.2" cy="507.6" r="6.1"/>
				<circle class="st27" cx="530.5" cy="507.6" r="6.1"/>
				<circle class="st27" cx="492.2" cy="507.6" r="6.1"/>
				<circle class="st27" cx="473" cy="527.5" r="6.1"/>
				<circle class="st27" cx="434.8" cy="527.5" r="6.1"/>
				<circle class="st27" cx="741" cy="527.5" r="6.1"/>
				<circle class="st27" cx="779.2" cy="527.5" r="6.1"/>
				<circle class="st27" cx="702.7" cy="527.5" r="6.1"/>
				<circle class="st27" cx="667" cy="527.5" r="6.1"/>
				<circle class="st27" cx="549.6" cy="527.5" r="6.1"/>
				
					<ellipse transform="matrix(0.9239 -0.3827 0.3827 0.9239 -162.9452 235.8198)" class="st27" cx="511.3" cy="527.5" rx="6.1" ry="6.1"/>
				<circle class="st27" cx="453.9" cy="547.4" r="6.1"/>
				<path class="st27" d="M418,540.7L418,540.7c3.1,1.2,4.7,4.7,3.6,7.8c-1.2,3.1-4.7,4.7-7.8,3.6L418,540.7z"/>
				<circle class="st27" cx="721.8" cy="547.4" r="6.1"/>
				<circle class="st27" cx="760.1" cy="547.4" r="6.1"/>
				<circle class="st27" cx="683.5" cy="547.4" r="6.1"/>
				<circle class="st27" cx="566.2" cy="547.4" r="6.1"/>
				<circle class="st27" cx="530.5" cy="547.4" r="6.1"/>
				<circle class="st27" cx="492.2" cy="547.4" r="6.1"/>
				<circle class="st27" cx="798.4" cy="547.4" r="6.1"/>
				<circle class="st27" cx="473" cy="567.4" r="6.1"/>
				<circle class="st27" cx="434.8" cy="567.4" r="6.1"/>
				<circle class="st27" cx="741" cy="567.4" r="6.1"/>
				<circle class="st27" cx="779.2" cy="567.4" r="6.1"/>
				<circle class="st27" cx="702.7" cy="567.4" r="6.1"/>
				<circle class="st27" cx="667" cy="567.4" r="6.1"/>
				<circle class="st27" cx="549.6" cy="567.4" r="6.1"/>
				
					<ellipse transform="matrix(0.9239 -0.3827 0.3827 0.9239 -178.2143 238.857)" class="st27" cx="511.3" cy="567.4" rx="6.1" ry="6.1"/>
				<circle class="st27" cx="453.9" cy="587.3" r="6.1"/>
				<circle class="st27" cx="415.6" cy="587.3" r="6.1"/>
				<circle class="st27" cx="721.8" cy="587.3" r="6.1"/>
				<circle class="st27" cx="760.1" cy="587.3" r="6.1"/>
				<circle class="st27" cx="683.5" cy="587.3" r="6.1"/>
				<circle class="st27" cx="566.2" cy="587.3" r="6.1"/>
				<circle class="st27" cx="530.5" cy="587.3" r="6.1"/>
				<circle class="st27" cx="492.2" cy="587.3" r="6.1"/>
				<circle class="st27" cx="798.4" cy="587.3" r="6.1"/>
				<circle class="st27" cx="473" cy="607.3" r="6.1"/>
				<circle class="st27" cx="434.8" cy="607.3" r="6.1"/>
				<path class="st27" d="M395,600.5L395,600.5c3.1,1.2,4.7,4.7,3.5,7.9c-1.2,3.1-4.7,4.7-7.9,3.5L395,600.5z"/>
				<circle class="st27" cx="738.4" cy="607.3" r="6.1"/>
				<circle class="st27" cx="779.2" cy="607.3" r="6.1"/>
				<circle class="st27" cx="702.7" cy="607.3" r="6.1"/>
				<circle class="st27" cx="667" cy="607.3" r="6.1"/>
				<circle class="st27" cx="549.6" cy="607.3" r="6.1"/>
				
					<ellipse transform="matrix(0.9239 -0.3827 0.3827 0.9239 -193.4834 241.8942)" class="st27" cx="511.3" cy="607.3" rx="6.1" ry="6.1"/>
				<circle class="st27" cx="453.9" cy="627.2" r="6.1"/>
				<circle class="st27" cx="415.6" cy="627.2" r="6.1"/>
				<circle class="st27" cx="721.8" cy="627.2" r="6.1"/>
				<circle class="st27" cx="760.1" cy="627.2" r="6.1"/>
				<circle class="st27" cx="683.5" cy="627.2" r="6.1"/>
				<circle class="st27" cx="566.2" cy="627.2" r="6.1"/>
				<circle class="st27" cx="530.5" cy="627.2" r="6.1"/>
				<circle class="st27" cx="492.2" cy="627.2" r="6.1"/>
				<circle class="st27" cx="798.4" cy="627.2" r="6.1"/>
				
					<ellipse transform="matrix(0.9239 -0.3827 0.3827 0.9239 -211.6405 230.2768)" class="st27" cx="473" cy="647.1" rx="6.1" ry="6.1"/>
				
					<ellipse transform="matrix(0.9239 -0.3827 0.3827 0.9239 -214.5387 215.6537)" class="st27" cx="434.8" cy="647.1" rx="6.1" ry="6.1"/>
				
					<ellipse transform="matrix(0.9239 -0.3827 0.3827 0.9239 -217.4586 200.9981)" class="st27" cx="396.5" cy="647.1" rx="6.1" ry="6.1"/>
				<ellipse class="st27" cx="738.4" cy="647.1" rx="6.1" ry="6.1"/>
				<ellipse class="st27" cx="779.2" cy="647.1" rx="6.1" ry="6.1"/>
				<ellipse class="st27" cx="702.7" cy="647.1" rx="6.1" ry="6.1"/>
				<ellipse class="st27" cx="667" cy="647.1" rx="6.1" ry="6.1"/>
				<ellipse class="st27" cx="549.6" cy="647.1" rx="6.1" ry="6.1"/>
				<circle class="st27" cx="453.9" cy="667.1" r="6.1"/>
				<circle class="st27" cx="415.6" cy="667.1" r="6.1"/>
				<circle class="st27" cx="377.4" cy="667.1" r="6.1"/>
				<circle class="st27" cx="721.8" cy="667.1" r="6.1"/>
				<circle class="st27" cx="760.1" cy="667.1" r="6.1"/>
				<circle class="st27" cx="683.5" cy="667.1" r="6.1"/>
				<circle class="st27" cx="566.2" cy="667.1" r="6.1"/>
				<circle class="st27" cx="530.5" cy="667.1" r="6.1"/>
				<circle class="st27" cx="492.2" cy="667.1" r="6.1"/>
				<circle class="st27" cx="798.4" cy="667.1" r="6.1"/>
				<circle class="st27" cx="473" cy="687.9" r="6.1"/>
				<circle class="st27" cx="434.8" cy="687.9" r="6.1"/>
				<circle class="st27" cx="396.5" cy="687.9" r="6.1"/>
				<circle class="st27" cx="738.4" cy="687.9" r="6.1"/>
				<circle class="st27" cx="779.2" cy="687.9" r="6.1"/>
				<circle class="st27" cx="702.7" cy="687.9" r="6.1"/>
				<circle class="st27" cx="667" cy="687.9" r="6.1"/>
				<circle class="st27" cx="549.6" cy="687.9" r="6.1"/>
				
					<ellipse transform="matrix(0.9239 -0.3827 0.3827 0.9239 -224.518 247.0728)" class="st27" cx="508.8" cy="687.9" rx="6.1" ry="6.1"/>
				<circle class="st27" cx="453.9" cy="707.8" r="6.1"/>
				<circle class="st27" cx="415.6" cy="707.8" r="6.1"/>
				<circle class="st27" cx="377.4" cy="707.8" r="6.1"/>
				<circle class="st27" cx="721.8" cy="707.8" r="6.1"/>
				<circle class="st27" cx="760.1" cy="707.8" r="6.1"/>
				<circle class="st27" cx="683.5" cy="707.8" r="6.1"/>
				<circle class="st27" cx="566.2" cy="707.8" r="6.1"/>
				<circle class="st27" cx="530.5" cy="707.8" r="6.1"/>
				<circle class="st27" cx="798.4" cy="707.8" r="6.1"/>
				<path class="st27" d="M470.2,734.4L470.2,734.4c-3-1.4-4.3-5-2.9-8.1c1.4-3,5-4.3,8.1-2.9L470.2,734.4z"/>
				<circle class="st27" cx="434.8" cy="727.6" r="6.1"/>
				<circle class="st27" cx="396.5" cy="727.6" r="6.1"/>
				<circle class="st27" cx="358.2" cy="727.6" r="6.1"/>
				<circle class="st27" cx="738.4" cy="727.6" r="6.1"/>
				<circle class="st27" cx="779.2" cy="727.6" r="6.1"/>
				<circle class="st27" cx="702.7" cy="727.6" r="6.1"/>
				<circle class="st27" cx="667" cy="727.6" r="6.1"/>
				<circle class="st27" cx="549.6" cy="727.6" r="6.1"/>
				
					<ellipse transform="matrix(0.9239 -0.3827 0.3827 0.9239 -239.7105 250.0948)" class="st27" cx="508.8" cy="727.6" rx="6.1" ry="6.1"/>
				<circle class="st27" cx="453.9" cy="747.4" r="6.1"/>
				<circle class="st27" cx="415.6" cy="747.4" r="6.1"/>
				<circle class="st27" cx="377.4" cy="747.4" r="6.1"/>
				<path class="st27" d="M342.1,741.2c3.1,1.2,4.7,4.7,3.5,7.9c-1.2,3.1-4.7,4.7-7.9,3.5L342.1,741.2z"/>
				<circle class="st27" cx="721.8" cy="747.4" r="6.1"/>
				<circle class="st27" cx="760.1" cy="747.4" r="6.1"/>
				<circle class="st27" cx="683.5" cy="747.4" r="6.1"/>
				<circle class="st27" cx="566.2" cy="747.4" r="6.1"/>
				<circle class="st27" cx="530.5" cy="747.4" r="6.1"/>
				<circle class="st27" cx="798.4" cy="747.4" r="6.1"/>
				<circle class="st27" cx="434.8" cy="767.3" r="6.1"/>
				<circle class="st27" cx="396.5" cy="767.3" r="6.1"/>
				<circle class="st27" cx="358.2" cy="767.3" r="6.1"/>
				<circle class="st27" cx="738.4" cy="767.3" r="6.1"/>
				<circle class="st27" cx="779.2" cy="767.3" r="6.1"/>
				<circle class="st27" cx="702.7" cy="767.3" r="6.1"/>
				<circle class="st27" cx="667" cy="767.3" r="6.1"/>
				<circle class="st27" cx="549.6" cy="767.3" r="6.1"/>
				
					<ellipse transform="matrix(0.9239 -0.3827 0.3827 0.9239 -254.9031 253.1168)" class="st27" cx="508.8" cy="767.3" rx="6.1" ry="6.1"/>
				<circle class="st27" cx="415.6" cy="787.1" r="6.1"/>
				<circle class="st27" cx="377.4" cy="787.1" r="6.1"/>
				<circle class="st27" cx="339.1" cy="787.1" r="6.1"/>
				<circle class="st27" cx="721.8" cy="787.1" r="6.1"/>
				<circle class="st27" cx="760.1" cy="787.1" r="6.1"/>
				<circle class="st27" cx="683.5" cy="787.1" r="6.1"/>
				<circle class="st27" cx="566.2" cy="787.1" r="6.1"/>
				<circle class="st27" cx="530.5" cy="787.1" r="6.1"/>
				<circle class="st27" cx="798.4" cy="787.1" r="6.1"/>
				<circle class="st27" cx="433.1" cy="805.2" r="6.1"/>
				<circle class="st27" cx="396.5" cy="807" r="6.1"/>
				<circle class="st27" cx="358.2" cy="807" r="6.1"/>
				<path class="st27" d="M319.5,800.4L319.5,800.4c3.1,1.2,4.7,4.7,3.5,7.8s-4.7,4.7-7.8,3.5L319.5,800.4z"/>
				<path class="st27" d="M732.3,808.3c0-3.4,2.7-6.1,6.1-6.1s6.1,2.7,6.1,6.1H732.3z"/>
				<circle class="st27" cx="779.2" cy="807" r="6.1"/>
				<path class="st27" d="M696.6,808.3c0-3.4,2.7-6.1,6.1-6.1c3.4,0,6.1,2.7,6.1,6.1H696.6z"/>
				<path class="st27" d="M660.9,808.3c0-3.4,2.7-6.1,6.1-6.1s6.1,2.7,6.1,6.1H660.9z"/>
				<path class="st27" d="M543.5,808.3c0-3.4,2.7-6.1,6.1-6.1s6.1,2.7,6.1,6.1H543.5z"/>
				<path class="st27" d="M502.7,808.3c0-3.4,2.7-6.1,6.1-6.1s6.1,2.7,6.1,6.1H502.7z"/>
				<circle class="st27" cx="415.6" cy="824.8" r="6.1"/>
				<circle class="st27" cx="377.4" cy="824.8" r="6.1"/>
				<circle class="st27" cx="339.1" cy="824.8" r="6.1"/>
				<circle class="st27" cx="760.1" cy="824.8" r="6.1"/>
				<circle class="st27" cx="798.4" cy="824.8" r="6.1"/>
				<circle class="st27" cx="396.5" cy="845.1" r="6.1"/>
				<circle class="st27" cx="358.2" cy="845.1" r="6.1"/>
				<circle class="st27" cx="319.9" cy="845.1" r="6.1"/>
				<circle class="st27" cx="779.2" cy="845.1" r="6.1"/>
				<circle class="st27" cx="377.4" cy="865.3" r="6.1"/>
				<circle class="st27" cx="339.1" cy="865.3" r="6.1"/>
				<circle class="st27" cx="301.4" cy="865.3" r="6.1"/>
				<circle class="st27" cx="760.1" cy="865.3" r="6.1"/>
				<circle class="st27" cx="798.4" cy="865.3" r="6.1"/>
				<circle class="st27" cx="396.5" cy="885.6" r="6.1"/>
				<circle class="st27" cx="358.2" cy="885.6" r="6.1"/>
				<circle class="st27" cx="319.9" cy="885.6" r="6.1"/>
				<circle class="st27" cx="779.2" cy="885.6" r="6.1"/>
				<circle class="st27" cx="377.4" cy="905.8" r="6.1"/>
				<circle class="st27" cx="339.1" cy="905.8" r="6.1"/>
				<circle class="st27" cx="761.4" cy="905.8" r="6.1"/>
				<circle class="st27" cx="798.4" cy="905.8" r="6.1"/>
				<circle class="st27" cx="358.2" cy="926" r="6.1"/>
				<circle class="st27" cx="779.2" cy="926" r="6.1"/>
			</g>
			<path class="st4" d="M579.8,515.9l-51.3-59l49-54.3c0.2-0.6,0.8-0.9,1.4-0.7c0.6,0.2,1,0.8,0.9,1.5v53.5L579.8,515.9z"/>
			<polygon class="st4" points="653.1,458.6 653.1,530.9 686.3,458.6 633.6,411.6 			"/>
		</g>
		<g id="HEAD_1_">
			<g id="NECK_1_">
				<path class="st27" d="M653.8,458.6L653.8,458.6c-0.2,9.6-4.1,18.7-10.8,25.5c-14.5,14.7-38.2,14.8-52.9,0.3
					c-6.9-6.8-10.8-16.1-10.9-25.7v-59.3h49.1L653.8,458.6z"/>
				<polygon class="st18" points="581.1,399.3 628.3,399.3 653.8,458.6 				"/>
			</g>
			<path id="HEAD-2_1_" class="st27" d="M561.1,386.7c0-8.5,6.9-15.3,15.3-15.3h15.4v-8.8c0-13.1,10.6-23.7,23.7-23.7h10.6
				c13.1,0,23.7,10.6,23.7,23.7v31.9c0,9.6-7.8,17.4-17.4,17.4h-22.2c-7.8,0-14.7-4.9-17.3-12.2c-1.8,1.6-4.1,2.5-6.5,2.5h-9.9l0,0
				C568,402.1,561.1,395.2,561.1,386.7L561.1,386.7z"/>
			<path id="EAR" class="st31" d="M573.2,379.2c4.6,0,8.3,3.7,8.3,8.3"/>
			<g id="FACE_1_">
				<line class="st31" x1="639" y1="362.4" x2="648.4" y2="362.4"/>
				<line class="st31" x1="607.3" y1="362.4" x2="620.8" y2="362.4"/>
				<ellipse class="st18" cx="615.4" cy="374" rx="2.7" ry="4.1"/>
				<ellipse class="st18" cx="643.1" cy="374" rx="2.7" ry="4.1"/>
				<path class="st31" d="M628.6,387.3c9.1-0.2,4.5-13.3,1.8-18.8"/>
				<path class="st31" d="M618.9,393.1c1,4.4,12,2.4,12,2.4"/>
			</g>
			<path id="HAIR_1_" class="st18" d="M577.6,371.3v-12.1c0-18.9,16.1-34.3,36-34.3h0.3c19.9,0,36,15.4,36,34.3v3.3
				c0-13.1-10.6-23.7-23.7-23.7h-10.6c-13.1,0-23.7,10.6-23.7,23.7v10.6c-0.1,0.2-0.1,0.4-0.2,0.6c-1.1,2.3-3.9,3.2-6.2,2.1
				L577.6,371.3z"/>
		</g>
	</g>
	<g id="MAN_S_HAND">
		<polygon id="SHADOW-3" class="st4" points="266.9,907.5 336.4,985.7 288.1,999.3 226.8,931.4 		"/>
		<g id="RIGHT_ARM">
			<path class="st27" d="M366.4,953.9c-7.8,9.1-20.4,16.9-32.3,16.9h-58.5c-1.4,0-2.8,0.5-3.9,1.5c-2.4,2.2-2.6,5.9-0.4,8.3
				l16.9,18.7h-21.7c-7.6,0-14.8-3.2-19.9-8.8L220.8,962c-7.2-8-8.1-19.9-2-28.8l12.8-19c6-8.8,15.5-14.6,26.1-15.8l25.4-3.4
				L366.4,953.9z"/>
			<path class="st28" d="M245.8,927.2L233,946.1c-6,8.9-5.2,20.8,2,28.8"/>
			<path class="st28" d="M261.4,942.7l-12.8,19c-6,8.9-5.2,20.8,2,28.8"/>
			<path class="st28" d="M302.8,947.4l-15.1,4.6c-8.9,2.7-14.9,13.4-14.9,22.6"/>
		</g>
	</g>
</g>
<g id="CHARACTER_ON_SCOOTER">
	<g id="SCOOTER">
		<path class="st18" d="M4056.3,1063.2h234.3l0,0v4.4c0,18.7-15.1,33.8-33.8,33.8h-229.9l0,0v-8.7
			C4026.8,1076.4,4040,1063.2,4056.3,1063.2L4056.3,1063.2z"/>
		<circle class="st18" cx="4795.8" cy="1361.1" r="92.5"/>
		<path class="st4" d="M4721.1,1415.7c-30.1-41.3-21-99.2,20.2-129.3c35.4-25.8,83.9-23.3,116.4,6L4721.1,1415.7z"/>
		<circle class="st32" cx="4795.8" cy="1361.1" r="26.5"/>
		<circle class="st18" cx="3951.2" cy="1361.1" r="92.5"/>
		<path class="st4" d="M3863.5,1331.6c16.3-48.4,68.8-74.5,117.2-58.2c37.6,12.7,63,47.9,63,87.6L3863.5,1331.6z"/>
		<circle class="st32" cx="3951.2" cy="1361.1" r="26.5"/>
		<path class="st27" d="M4663.9,918c0,24.4-19.8,44.1-44.1,44.1c-19,0-35.9-12.2-41.9-30.2l74.5-43.7
			C4659.8,896.4,4663.9,907,4663.9,918z"/>
		<path class="st11" d="M4652.4,888.2l-74.5,43.7c-7.7-23.1,4.8-48.1,27.9-55.8C4622.4,870.6,4640.6,875.4,4652.4,888.2z"/>
		<path class="st11" d="M4216.3,1352v-250.7h-173.2c-125.7,0-230.2,96.6-240.1,221.9h216.4c29.4,0,57.5,12.5,77.2,34.4l31.5,35
			c12.6,14.1,30.6,22.1,49.5,22.1h432.8c17.2,0,34-4.6,48.8-13.3l233.9-137.3c0,0-25.4-81.8-130.9-59.9l-180.8-295.8
			c-6.7-11-18.6-17.7-31.5-17.7h-33.6v16.2h14.2c14.5,0,27.7,8.5,33.7,21.7l110.4,244.1c45.5,100.5-28,214.3-138.3,214.3h-284.8
			C4232.1,1387.2,4216.3,1371.5,4216.3,1352L4216.3,1352z"/>
		<path class="st2" d="M3824.5,1322.6c10-61.3,63.2-108.2,127.3-108.2c71.2,0,129,57.8,129,129"/>
		<path class="st2" d="M4763.4,1203.8c-25.8,7.4-47,24.3-59,46.1"/>
		<circle class="st4" cx="4518.1" cy="892.3" r="18.4"/>
		
			<ellipse transform="matrix(0.5951 -0.8036 0.8036 0.5951 1221.4883 3943.0476)" class="st27" cx="4524" cy="759.3" rx="38.3" ry="14.5"/>
		
			<ellipse transform="matrix(0.5951 -0.8036 0.8036 0.5951 1222.7631 3937.4436)" class="st33" cx="4519.1" cy="755.2" rx="39.5" ry="15"/>
		<path class="st5" d="M4569.8,896.7v-70.9c0-9.7-3.6-19-10-26.1l-40-44.3"/>
		<path class="st4" d="M4216.3,1101.4v41.1l-189.5-40.5l0,0c5.4-0.4,10.8-0.6,16.2-0.5L4216.3,1101.4z"/>
		<line class="st2" x1="3951.2" y1="1453.6" x2="4978.7" y2="1453.6"/>
		<line class="st2" x1="4302.4" y1="1486.1" x2="4893.1" y2="1486.1"/>
		<g id="SMOKE">
			<path class="st1" d="M3794.1,1361.3c-11.1-48.4-54.2-82.7-103.9-82.7c-41.6,0-79.7-23.4-98.5-60.6l-30-59.3
				c-35.1-69.4-119.9-97.2-189.3-62.1c-47.4,24-77.3,72.6-77.3,125.7v22.4c33.8,2.3,64,22.2,79.3,52.4c-18.3-22.9-46-36.3-75.3-36.3
				c-1.3,0-2.7,0-4,0.1c-53.2,2.2-94.5,47.1-92.3,100.2c2.1,50.1,42.2,90.3,92.3,92.3l641.5,0.1
				C3847.8,1453.6,3806.5,1415.3,3794.1,1361.3z M3282.7,1322.3c-6.8,0-12.3-5.5-12.3-12.3s5.5-12.3,12.3-12.3s12.3,5.5,12.3,12.3
				S3289.5,1322.3,3282.7,1322.3L3282.7,1322.3z"/>
			<circle class="st1" cx="3169" cy="1429" r="21.9"/>
		</g>
	</g>
	<g id="CHARACTER">
		<g id="LEGS_1_">
			<g id="RIGHT_2_">
				<path class="st4" d="M4525.8,1341.6c-66.8,18.8-134.6,6.4-152.5,2.5c0.1-0.1,0.1-0.3,0.2-0.4l148.1-305.3v286.4
					C4521.6,1330.6,4523,1336.4,4525.8,1341.6z"/>
				<path class="st12" d="M4553.1,1381.8v5.5h-153c-22.2,0-37.1-22.9-28.1-43.1c17.9,3.9,85.7,16.3,152.5-2.5l0,0
					c2.5,4.6,5.9,8.7,10.1,11.8l7.1,5.4C4548.9,1364.3,4553.1,1372.7,4553.1,1381.8z"/>
			</g>
			<g id="LEFT_2_">
				<path class="st11" d="M4512.5,1062.3L4382.8,1330c-2.3,4.8-2.8,10.3-1.2,15.4c0,0-83.2,33.7-160.6,23.7
					c-5.5-9.7-6-21.3-1.6-31.5l108.1-250.1c4.1-9.5-0.3-20.5-9.8-24.6c-2.3-1-4.9-1.5-7.4-1.5h-155.1c-28.2,0-55.1-12.2-73.6-33.4
					l209.5-94.6h140.7C4497.9,933.4,4541.3,1002.7,4512.5,1062.3z"/>
				<path class="st34" d="M4343.4,970.8c66.2,0,109.6,69.3,80.8,128.9l-129.7,267.7"/>
				<path class="st0" d="M4406.2,1387.2H4252c-12.9,0-24.8-6.9-31-18.2c77.4,10,160.6-23.7,160.6-23.7c1.1,3.6,3.1,6.9,5.9,9.5
					l7.5,7C4402.1,1368.4,4406.2,1377.6,4406.2,1387.2z"/>
			</g>
		</g>
		<g id="HEAD_2_">
			<g id="HEAD-2_2_">
				<path class="st11" d="M4328,658.4l-18.4,26.1c-11.3-7.7-24.6-11.9-38.3-11.9h-28.4c-1.5,0-3.1,0-4.6,0.1l40.1-36.5L4328,658.4z"
					/>
				<path class="st11" d="M4342.2,611.4l4.5,27.5c0.4,3.1-1.6,6-4.7,6.8l-0.4,0.1c-3,0.7-5.3,3.2-5.7,6.3l-1.2,9.1
					c-0.5,3.9-4.1,6.7-8.1,6.2c-10.3-1.4-28.7-6.3-33.7-24.1c-7.2-25.2,19.6-32,19.6-32L4342.2,611.4z"/>
				<path class="st5" d="M4319.2,620.9c0,0,5.8-3.4,11-3.5"/>
				<ellipse class="st4" cx="4327.1" cy="629.3" rx="1.9" ry="3.3"/>
				<path class="st5" d="M4335.8,652.5c-7,0-8.5-6.8-8.5-6.8"/>
			</g>
			<g id="HELMET">
				<path class="st4" d="M4274.8,633l-0.8-1.8c-8.3-18-0.4-39.3,17.6-47.6l4.6-2.1c15.7-7.2,34.2-0.4,41.5,15.3
					c0.7,1.5,1.3,3.1,1.7,4.7l2.8,10h-22.7c-6.1,0-11,4.9-11,11v3.7c0,9.1-7.4,16.5-16.5,16.5h-2.2
					C4283.4,642.6,4277.5,638.8,4274.8,633z"/>
				<path class="st4" d="M4319.8,672.7c-0.2,0-0.3,0-0.5,0c-3.7-0.5-11.8-2.7-19.1-8.2c-8.8-6.7-13.2-15.8-12.6-26.4
					c0.1-2.2,2-3.8,4.1-3.7c2.2,0.1,3.8,2,3.7,4.1c-1.1,19.1,19.6,25.8,24.8,26.4c2.2,0.1,3.8,2,3.7,4.1
					C4323.8,671.2,4322,672.9,4319.8,672.7L4319.8,672.7z"/>
				<circle class="st32" cx="4291.8" cy="628.3" r="9.7"/>
			</g>
			<g id="HAIR_2_">
				<path class="st27" d="M4314.8,613c-4.7,0.9,9.7-5.2,19.8-10.6c-0.6-1.7-0.9-3.4-0.9-5.2c0-8.8,7.4-15.9,16.6-15.9
					s16.6,7.1,16.6,15.9s-7.4,15.9-16.6,15.9L4314.8,613z"/>
				<circle class="st27" cx="4377.3" cy="596.1" r="5.8"/>
			</g>
		</g>
		<g id="HAND_1_">
			<path class="st27" d="M4453.9,936.1c0,0-151.2,83.3-232.4,28.7c0,0-77.5,52.6-139.9,63.2V881.8c0-30.8,13.7-76.6,28.9-117.8
				c20.6-56,74-93.3,133.7-93.3h28.5c37.4,0,67.7,30.3,67.7,67.7v77.7c0,8.9,7.2,16.1,16.1,16.1c1,0,2-0.1,3-0.3l90.4-17.2
				c-7.4,7.2-12.9,33.1-12.9,61C4436.8,908.7,4444.5,936.1,4453.9,936.1z"/>
			<path class="st35" d="M4467.9,875.8c0,32.9-7.6,60.3-17.1,60.3c-9.4,0-17.1-27.4-17.1-60.3c0-32.9,7.6-60,17.1-60
				C4460.3,815.9,4467.9,842.9,4467.9,875.8z"/>
			<path class="st11" d="M4555.4,843.9v58.9h-8.3c-5.8,0-10.6-4.7-10.6-10.6l0,0c0-10.2-8.2-18.4-18.4-18.4l0,0
				c-10.2,0-18.4,8.3-18.4,18.4c0,24.2-19.6,43.8-43.8,43.8l0,0h-1.9h-0.5c-9.2-0.9-16.6-27.9-16.6-60.2c0-14.8,1.6-28.5,4.1-39l0,0
				l22.5-10.5l12.6-5.9c6.5-3,13.8-3.8,20.8-2.4l45.5,9.7C4550,829.5,4555.4,836.2,4555.4,843.9z"/>
			<path class="st5" d="M4512.7,844.9l29.7,6.3c7.6,1.6,13,8.3,13,16.1v35"/>
			<path class="st4" d="M4470.9,875.8c0,32.9-7.6,60.3-17.1,60.3h-0.5c-9.2-0.9-16.6-27.9-16.6-60.2c0-14.8,1.6-28.5,4.1-39l0,0
				l22.5-10.5C4468,837.2,4470.9,855.4,4470.9,875.8z"/>
			<path class="st36" d="M4231.4,972.1c-28.6-18.6-55.9-49.2-47.8-141.4"/>
		</g>
		<g id="DELIVERY_BOX">
			<path class="st4" d="M4229.4,971.8c-49.6,55.2-147.9,56.1-147.9,56.1v-105c3.8,70,109.3,33.3,123.4,28.1
				C4212.1,959.7,4220.9,966.2,4229.4,971.8z"/>
			<path class="st4" d="M4242.8,668.9v1.9c-68,3.6-125.3,51.9-140.3,118.3l-20.9,92.7V668.9H4242.8z"/>
			<path class="st11" d="M4081.5,670.8V1028h-171.3c-25.2,0-46.4-19-51.5-44.4c-0.8-3.9-1.2-8-1.2-12V727.2c0-0.1,0-0.3,0-0.4
				c0-6.2,1-12.3,2.9-18.1c7.2-22,26.7-37.9,49.8-37.9H4081.5z"/>
			<path class="st4" d="M4081.5,968.3v18.1h-222.8c-0.8-3.7-1.2-7.4-1.2-11.2v-6.9L4081.5,968.3L4081.5,968.3z"/>
			<path class="st4" d="M4081.5,708.7v18.1h-224c0-6.2,1-12.3,2.9-18.1H4081.5z"/>
			<rect x="3859.3" y="732.3" class="st1" width="220.3" height="3"/>
			<path class="st37" d="M3981.6,900v-97c0-1.9,1.6-3.5,3.5-3.5l0,0l0,0c1.9,0,3.5,1.6,3.5,3.5l0,0v40.5"/>
			<path class="st37" d="M3981.6,900L3981.6,900v-56.4h15.6v29.8C3997.2,884.4,3991.3,894.6,3981.6,900z"/>
			<path class="st38" d="M3963.3,799.6l1.6,19.1c0.5,6.1-4,11.4-10.1,11.9c-0.3,0-0.6,0-0.9,0l0,0c-6.1,0-11-4.9-11-11
				c0-0.3,0-0.6,0-0.9l1.6-19.1"/>
			<line class="st38" x1="3953.9" y1="799.6" x2="3953.9" y2="846.9"/>
			<path class="st38" d="M3952.8,847.7h2.4c1.5,0,2.7,1.2,2.7,2.7v47c0,1.5-1.2,2.7-2.7,2.7h-2.4c-1.5,0-2.7-1.2-2.7-2.7v-47
				C3950.2,848.9,3951.4,847.7,3952.8,847.7z"/>
		</g>
	</g>
</g>
<g id="WOMAN_1_">
	<ellipse id="SHADOW-4" class="st39" cx="5059" cy="1534.2" rx="464.8" ry="27.5"/>
	<g id="SHOES-2">
		<path id="RIGHT_1_" class="st4" d="M4920.5,1474.6h94.1l11.4,59.5c0,0.2,0.1,0.5,0.1,0.7c0,2.2-1.7,3.9-3.9,3.9H4985
			c-1.8,0-3.4-1.2-3.8-3l-2.4-9.9c-0.1-0.5-0.3-0.9-0.7-1.3c-1.1-1.3-3-1.4-4.3-0.3l-14.6,12.5c-1.4,1.3-3.3,1.9-5.2,2h-92.4
			L4920.5,1474.6z"/>
		<path id="LEFT_1_" class="st4" d="M5371.8,1393.2l58.6-78.1l54.3,29.4c0.2,0.1,0.4,0.2,0.6,0.4c2.1,1.6,2.5,4.5,0.9,6.6
			l-21.6,28.6c-1.3,1.7-3.6,2.3-5.6,1.5l-9-3.9c-0.4-0.2-0.9-0.3-1.3-0.2c-1.6,0.1-2.8,1.5-2.7,3.1l1.3,20.4
			c0.1,1.3-0.3,2.7-1.1,3.7l-56.2,74.5L5371.8,1393.2z"/>
	</g>
	<g id="SWEATER">
		<path class="st27" d="M4775.3,709c0.2-7.2,6.1-12.9,13.3-12.8l68.4,1.5v-31.4l0,0c0-55.4,44.9-100.4,100.3-100.4h18.5
			c10,0,19-6,23-15.2l3.4-8h54.7l3.3,7.7c4,9.1,13,15,22.9,15h23.8c32.8,0,63.5,16,82.3,42.8l200.1,286.2
			c-6.1-8.7-73.6,19.9-70,61.7l-192.1-264c-0.8-1.1-2.1-1.8-3.5-1.8c-2.4,0-4.3,1.9-4.3,4.3v52.8c0,16-13,29-29,29H4963l0,0
			c-19,0-34.4-15.4-34.4-34.4v43.7c0,37.1-27.9,68.3-64.8,72.4c-39.9,4.4-75.9-24.5-80.3-64.4l-8.2-83.2
			C4775.3,710.1,4775.3,709.6,4775.3,709z"/>
		<line class="st30" x1="4928.7" y1="674.4" x2="4928.7" y2="742.2"/>
		<line class="st30" x1="4878.3" y1="763.7" x2="4868.1" y2="716"/>
	</g>
	<g id="PANTS-2">
		<rect x="4952" y="778.2" class="st29" width="145.4" height="21.1"/>
		<rect x="4966.7" y="778.2" class="st40" width="115.7" height="21.1"/>
		<rect x="4982" y="778.2" class="st40" width="85.4" height="21.1"/>
		<rect x="4997" y="778.2" class="st40" width="55.4" height="21.1"/>
		<rect x="5014.3" y="778.2" class="st40" width="20.8" height="21.1"/>
		<path class="st29" d="M5127.8,825.5c18,41.3,54.5,126.3,91.2,219.1c40,101,147.3,194.4,192,230.1c11,8.8,13,24.7,4.6,35.9
			l-51.1,68.5c-8.5,11.4-23.7,15.4-36.7,9.7c-198.9-87.3-256.5-287.8-256.5-287.8l-24,318.4c-1.6,21.8-19.8,38.7-41.7,38.7h-68.9
			c-0.9,0-1.8,0-2.7-0.1c-23-1.5-40.5-21.4-39.1-44.4l37.3-582.3c1.2-18.1,16.2-32.2,34.3-32.1h121
			C5105.1,799.3,5120.8,809.6,5127.8,825.5z"/>
		<rect x="4922.5" y="1458.2" class="st29" width="90" height="17.4"/>
		<line class="st40" x1="4936.3" y1="1475.6" x2="4936.3" y2="1458.2"/>
		<line class="st40" x1="4951.7" y1="1475.6" x2="4951.7" y2="1458.2"/>
		<line class="st40" x1="4967" y1="1475.6" x2="4967" y2="1458.2"/>
		<line class="st40" x1="4982.3" y1="1475.6" x2="4982.3" y2="1458.2"/>
		<line class="st40" x1="4997.7" y1="1475.6" x2="4997.7" y2="1458.2"/>
		
			<rect x="5349.6" y="1342.5" transform="matrix(0.6024 -0.7982 0.7982 0.6024 1067.2805 4844.7568)" class="st41" width="94.1" height="17.2"/>
		<line class="st40" x1="5409" y1="1320.2" x2="5422.7" y2="1330.6"/>
		<line class="st40" x1="5399.1" y1="1333.1" x2="5412.9" y2="1343.5"/>
		<line class="st40" x1="5389.2" y1="1346" x2="5403" y2="1356.3"/>
		<line class="st40" x1="5379.3" y1="1358.8" x2="5393.1" y2="1369.2"/>
		<line class="st40" x1="5370.4" y1="1371.7" x2="5384.2" y2="1382.1"/>
		<path class="st30" d="M4995.3,942.2c18.4,0,55.1,118.2,76.1,158.9"/>
	</g>
	<g id="BAG">
		<line class="st30" x1="5115.4" y1="921.9" x2="4952" y2="566.1"/>
		<path class="st6" d="M5125.5,963.9l-10-24.7c-0.3-0.8-0.5-1.6-0.5-2.5c0-3.7,2.9-6.7,6.6-6.7h48.3l16.8,41.3h-50
			C5131.8,971.4,5127.3,968.5,5125.5,963.9z"/>
		<path class="st30" d="M5129.1,955.7l-13.7-33.8h53.6l16.8,41.4h-45.5C5135.4,963.3,5130.9,960.3,5129.1,955.7z"/>
		<line class="st30" x1="5121.8" y1="937.6" x2="5175.4" y2="937.6"/>
	</g>
	<g id="HANDS">
		<g id="LEFT-2_1_">
			<path class="st18" d="M5389.4,894.6c6.1,8.7,31.4,18.8,31.4,18.8c0-13.1,16.7-21,21.6-6.6s-10.1,60.7-53,67.6
				c-42.9,6.9-70-18.2-70-18.2C5315.8,914.5,5383.4,885.9,5389.4,894.6z"/>
			<path class="st30" d="M5402.1,930.4c34.1,12.8,38-5.2,38-5.2"/>
			<path class="st30" d="M5390.2,951.1c31.3,12.2,39-4.2,39-4.2"/>
			<path class="st30" d="M5373.4,966c12.4,5.6,23.9,3.9,29.2,2.9"/>
		</g>
		<g id="RIGHT-2_1_">
			<path class="st4" d="M4813.7,705.6l0.1-82.9c0-3.4,2.8-6.1,6.2-6.1h43.6c3.4,0,6.1,2.8,6.1,6.2l-0.1,82.9c0,3.4-2.8,6.1-6.2,6.1
				h-43.6C4816.5,711.8,4813.7,709,4813.7,705.6z"/>
			<path class="st18" d="M4783.8,656.6c0.6-6,7.1-10.1,12.3-10.3l17.6-0.7c0,7.2,5.8,14.9,12.9,14.9h0.3l30-0.6
				c7-0.1,12.7-5.9,12.7-12.9v-5.2c4.4,0.2,7.9,3.8,8,8.2l2.2,52.8c0.4,10.9-6.6,20.8-17.1,23.8l-17.4,3.6
				c-21,4.3-47.6-1.7-62.4-33.4L4783.8,656.6z"/>
			<path class="st5" d="M4850.3,677c12.3-1.4,25-5.7,24.5-16.6"/>
			<path class="st5" d="M4850.8,693.9c12.3-1.4,25-5.7,24.5-16.6"/>
			<path class="st5" d="M4852.1,710.8c12.3-1.4,25-5.1,24.5-16"/>
			<circle class="st1" cx="4859.1" cy="627.4" r="3.2"/>
			<circle class="st1" cx="4858.1" cy="627.4" r="3.2"/>
		</g>
	</g>
	<g id="HEAD-3_1_">
		<path id="HAIR-2_1_" class="st4" d="M5064.4,494.1c-12.4-8.5-3.6-36-26.7-44.3c-24.6-8.9-45.1,8.1-45.4,30s-27,28.1-32.6,40.8
			s5.6,22.1,5.6,22.1h138.6C5113.8,505.7,5076.8,502.6,5064.4,494.1z"/>
		<g id="NECK-2_1_">
			<polygon class="st18" points="5008.2,514.3 5048.4,514.3 5057,542.7 5002.3,542.7 			"/>
			<path class="st4" d="M5008.2,514.3h40.2l-9.9,13.3c-7.1,9.5-18.2,15.1-30.1,15.1h-6.2L5008.2,514.3z"/>
		</g>
		<path id="HEAD-4_1_" class="st18" d="M5003.6,472.8c10.3,19.5,44.8,19.8,44.8,19.8h9.1c6.4,0.2,11.5,5.3,11.7,11.7
			c0.2,6.6-5.1,12.2-11.7,12.3h-11.4c-4.9,4.7-16.9,14.7-30,14.7c-12.4,0-17.6-19.7-19.8-34.1C4995,488.4,4997.7,479.4,5003.6,472.8
			z"/>
		<g id="FACE-2">
			<path class="st42" d="M5059.1,499.5L5059.1,499.5c-3.7,0-6.7,3-6.7,6.7"/>
			<path class="st42" d="M5012.4,510.4c1.8-2.5,0.5-14.6-2.2-18.1c-4.2-5.4-11.4-2.8-11.4-2.8"/>
			<ellipse class="st4" cx="5025.5" cy="498.5" rx="2.2" ry="2.9"/>
			<ellipse class="st4" cx="5004.4" cy="498.5" rx="2.2" ry="2.9"/>
			<path class="st42" d="M5022.2,513.7c-3.1,5.2-10,3.7-10,3.7"/>
		</g>
	</g>
</g>
</svg>
